<?xml version="1.0" encoding="UTF-8"?>
<!DOCTYPE svg PUBLIC "-//W3C//DTD SVG 1.1//EN" "http://www.w3.org/Graphics/SVG/1.1/DTD/svg11.dtd">
<!-- Creator: CorelDRAW 2020 (64-Bit) -->
<symbol id="insta" viewBox="0 0 3942.04 3942.04">
<svg xmlns="http://www.w3.org/2000/svg" xml:space="preserve" width="47.625mm" height="47.625mm" version="1.1" style="shape-rendering:geometricPrecision; text-rendering:geometricPrecision; image-rendering:optimizeQuality; fill-rule:evenodd; clip-rule:evenodd"

 xmlns:xlink="http://www.w3.org/1999/xlink"
 xmlns:xodm="http://www.corel.com/coreldraw/odm/2003">
 <defs>
  <style type="text/css">
   <![CDATA[
    .fil0 {fill:#E6E6E6}
   ]]>
  </style>
 </defs>
 <g id="Слой_x0020_1">
  <metadata id="CorelCorpID_0Corel-Layer"/>
  <path class="fil0" d="M1971.02 0c1088.57,0 1971.02,882.45 1971.02,1971.02 0,1088.57 -882.45,1971.02 -1971.02,1971.02 -1088.57,0 -1971.02,-882.45 -1971.02,-1971.02 0,-1088.57 882.45,-1971.02 1971.02,-1971.02zm662.28 1158.9c82.23,0 148.91,66.67 148.91,148.91 0,82.23 -66.67,148.91 -148.91,148.91 -82.23,0 -148.91,-66.67 -148.91,-148.91 0,-82.23 66.67,-148.91 148.91,-148.91zm-662.28 -428.89c-337.06,0 -379.31,1.43 -511.67,7.47 -132.07,6.02 -222.3,26.98 -301.23,57.67 -81.61,31.72 -150.82,74.14 -219.82,143.15 -69,69 -111.43,138.2 -143.14,219.82 -30.66,78.92 -51.66,169.13 -57.67,301.23 -6.05,132.39 -7.47,174.62 -7.47,511.67 0,337.03 1.42,379.31 7.47,511.68 6.01,132.07 27.01,222.3 57.67,301.23 31.71,81.61 74.14,150.82 143.14,219.79 69,69 138.21,111.43 219.82,143.17 78.93,30.66 169.16,51.65 301.23,57.67 132.36,6.04 174.62,7.47 511.67,7.47 337.03,0 379.28,-1.43 511.65,-7.47 132.1,-6.02 222.33,-27.01 301.26,-57.67 81.61,-31.74 150.82,-74.17 219.82,-143.17 68.97,-68.97 111.43,-138.18 143.14,-219.79 30.66,-78.92 51.66,-169.15 57.68,-301.23 6.04,-132.37 7.47,-174.65 7.47,-511.68 0,-337.02 -1.43,-379.28 -7.47,-511.67 -6.02,-132.1 -27.02,-222.3 -57.68,-301.23 -31.71,-81.62 -74.16,-150.82 -143.14,-219.82 -69,-69.01 -138.21,-111.43 -219.82,-143.15 -78.93,-30.68 -169.15,-51.65 -301.26,-57.67 -132.37,-6.04 -174.62,-7.47 -511.65,-7.47l0 0zm0 223.62c331.36,0 370.61,1.25 501.49,7.21 120.98,5.55 186.68,25.75 230.42,42.75 57.93,22.51 99.28,49.41 142.7,92.82 43.42,43.42 70.32,84.78 92.83,142.68 16.99,43.75 37.2,109.44 42.75,230.45 5.95,130.88 7.21,170.12 7.21,501.49 0,331.37 -1.26,370.61 -7.21,501.49 -5.55,120.98 -25.76,186.71 -42.75,230.42 -22.51,57.93 -49.41,99.29 -92.83,142.7 -43.42,43.42 -84.77,70.32 -142.7,92.83 -43.75,16.99 -109.44,37.23 -230.42,42.72 -130.87,5.99 -170.09,7.24 -501.49,7.24 -331.4,0 -370.64,-1.25 -501.49,-7.24 -120.97,-5.49 -186.7,-25.73 -230.42,-42.72 -57.93,-22.51 -99.28,-49.41 -142.7,-92.83 -43.42,-43.41 -70.32,-84.77 -92.83,-142.7 -16.99,-43.71 -37.2,-109.44 -42.74,-230.42 -5.96,-130.87 -7.22,-170.11 -7.22,-501.49 0,-331.36 1.26,-370.61 7.22,-501.49 5.55,-121.01 25.75,-186.7 42.74,-230.45 22.51,-57.9 49.38,-99.25 92.83,-142.68 43.42,-43.41 84.77,-70.31 142.7,-92.82 43.72,-17 109.45,-37.21 230.42,-42.75 130.88,-5.96 170.12,-7.21 501.49,-7.21zm0 1431.07c-228.46,0 -413.68,-185.21 -413.68,-413.68 0,-228.46 185.22,-413.68 413.68,-413.68 228.47,0 413.68,185.22 413.68,413.68 0,228.47 -185.21,413.68 -413.68,413.68zm0 -1050.95c-351.95,0 -637.27,285.32 -637.27,637.27 0,351.96 285.32,637.27 637.27,637.27 351.95,0 637.27,-285.32 637.27,-637.27 0,-351.95 -285.32,-637.27 -637.27,-637.27z"
  />
 </g></symbol>
</svg>
