<?xml version="1.0" encoding="UTF-8"?>
<!DOCTYPE svg PUBLIC "-//W3C//DTD SVG 1.1//EN" "http://www.w3.org/Graphics/SVG/1.1/DTD/svg11.dtd">
<!-- Creator: CorelDRAW 2020 (64-Bit) -->
<svg xmlns="http://www.w3.org/2000/svg" xml:space="preserve" width="31.2381mm" height="17.2453mm" version="1.1" style="shape-rendering:geometricPrecision; text-rendering:geometricPrecision; image-rendering:optimizeQuality; fill-rule:evenodd; clip-rule:evenodd"

 xmlns:xlink="http://www.w3.org/1999/xlink"
 xmlns:xodm="http://www.corel.com/coreldraw/odm/2003">
 <symbol id="logo" viewBox="0 0 64.23 35.46">
 <defs>
  <style type="text/css">
   <![CDATA[
    .fil0 {fill:#E6E6E6}
    .fil1 {fill:#E6E6E6}
   ]]>
  </style>
 </defs>
 <g id="Слой_x0020_1">
  <metadata id="CorelCorpID_0Corel-Layer"/>
  <path class="fil0" d="M15.35 2.65l39.57 0 -6.04 30.15 -39.57 0 6.04 -30.15zm45.23 -2.14l-50.03 0c-2.07,0 -4.08,1.56 -4.47,3.48l-5.51 27.47c-0.38,1.91 1,3.48 3.07,3.48l50.03 0c2.07,0 4.08,-1.56 4.47,-3.48l5.51 -27.47c0.38,-1.91 -1,-3.48 -3.07,-3.48zm-51.54 1.95l3.88 0c0.41,0 0.69,0.31 0.61,0.69l-0.7 3.5c-0.08,0.38 -0.48,0.69 -0.89,0.69l-3.88 0c-0.41,0 -0.69,-0.31 -0.61,-0.69l0.7 -3.5c0.08,-0.38 0.48,-0.69 0.89,-0.69zm-1.29 6.41l3.88 0c0.41,0 0.69,0.31 0.61,0.69l-0.7 3.5c-0.08,0.38 -0.48,0.69 -0.89,0.69l-3.88 0c-0.41,0 -0.69,-0.31 -0.61,-0.69l0.7 -3.5c0.08,-0.38 0.48,-0.69 0.89,-0.69zm-1.29 6.41l3.88 0c0.41,0 0.69,0.31 0.61,0.69l-0.7 3.5c-0.08,0.38 -0.48,0.69 -0.89,0.69l-3.88 0c-0.41,0 -0.69,-0.31 -0.61,-0.69l0.7 -3.5c0.08,-0.38 0.48,-0.69 0.89,-0.69zm-1.29 6.41l3.88 0c0.41,0 0.69,0.31 0.61,0.69l-0.7 3.5c-0.08,0.38 -0.48,0.69 -0.89,0.69l-3.88 0c-0.41,0 -0.69,-0.31 -0.61,-0.69l0.7 -3.5c0.08,-0.38 0.48,-0.69 0.89,-0.69zm-1.29 6.41l3.88 0c0.41,0 0.69,0.31 0.61,0.69l-0.7 3.5c-0.08,0.38 -0.48,0.69 -0.89,0.69l-3.88 0c-0.41,0 -0.69,-0.31 -0.61,-0.69l0.7 -3.5c0.08,-0.38 0.48,-0.69 0.89,-0.69zm57.42 -25.65l-3.88 0c-0.41,0 -0.81,0.31 -0.89,0.69l-0.7 3.5c-0.08,0.38 0.2,0.69 0.61,0.69l3.88 0c0.41,0 0.81,-0.31 0.89,-0.69l0.7 -3.5c0.08,-0.38 -0.2,-0.69 -0.61,-0.69zm-1.29 6.41l-3.88 0c-0.41,0 -0.81,0.31 -0.89,0.69l-0.7 3.5c-0.08,0.38 0.2,0.69 0.61,0.69l3.88 0c0.41,0 0.81,-0.31 0.89,-0.69l0.7 -3.5c0.08,-0.38 -0.2,-0.69 -0.61,-0.69zm-1.29 6.41l-3.88 0c-0.41,0 -0.81,0.31 -0.89,0.69l-0.7 3.5c-0.08,0.38 0.2,0.69 0.61,0.69l3.88 0c0.41,0 0.81,-0.31 0.89,-0.69l0.7 -3.5c0.08,-0.38 -0.2,-0.69 -0.61,-0.69zm-1.29 6.41l-3.88 0c-0.41,0 -0.81,0.31 -0.89,0.69l-0.7 3.5c-0.08,0.38 0.2,0.69 0.61,0.69l3.88 0c0.41,0 0.81,-0.31 0.89,-0.69l0.7 -3.5c0.08,-0.38 -0.2,-0.69 -0.61,-0.69zm-1.29 6.41l-3.88 0c-0.41,0 -0.81,0.31 -0.89,0.69l-0.7 3.5c-0.08,0.38 0.2,0.69 0.61,0.69l3.88 0c0.41,0 0.81,-0.31 0.89,-0.69l0.7 -3.5c0.08,-0.38 -0.2,-0.69 -0.61,-0.69zm-14.67 -10.26l-8.8 4.55 -8.8 4.55 1.83 -9.11 1.83 -9.11 6.97 4.55 6.97 4.55z"/>
  <path class="fil1" d="M15.35 2.14l40.19 0c-2.08,10.39 -4.16,20.78 -6.25,31.17l-40.62 0c2.09,-10.39 4.17,-20.78 6.25,-31.17l0.42 0zm38.94 1.03l-38.52 0 -5.84 29.12 38.52 0 5.84 -29.12zm6.29 -2.14l-50.03 0c-0.92,0 -1.83,0.35 -2.55,0.91 -0.72,0.56 -1.24,1.32 -1.41,2.15l-5.51 27.47c-0.04,0.17 -0.05,0.35 -0.05,0.53 0,0.57 0.19,1.07 0.53,1.47 0.34,0.4 0.84,0.69 1.44,0.81l0 -0c0.21,0.04 0.42,0.06 0.65,0.06l50.03 0c0.92,0 1.83,-0.35 2.55,-0.91 0.72,-0.56 1.24,-1.32 1.41,-2.15l5.51 -27.47c0.04,-0.18 0.05,-0.36 0.05,-0.53 0,-0.57 -0.19,-1.07 -0.53,-1.47 -0.34,-0.4 -0.84,-0.68 -1.44,-0.8 -0.2,-0.04 -0.42,-0.06 -0.65,-0.06zm-50.03 -1.03l50.03 0c0.29,0 0.57,0.03 0.85,0.09l0 -0c0.83,0.17 1.53,0.57 2.02,1.15 0.5,0.58 0.78,1.31 0.78,2.13 0,0.24 -0.02,0.48 -0.07,0.73l-5.51 27.47c-0.22,1.08 -0.89,2.06 -1.79,2.76 -0.9,0.7 -2.03,1.13 -3.18,1.13l-50.03 0c-0.3,0 -0.58,-0.03 -0.85,-0.08 -0.83,-0.17 -1.53,-0.58 -2.02,-1.15 -0.5,-0.58 -0.78,-1.31 -0.78,-2.13 0,-0.23 0.02,-0.47 0.08,-0.73l-0 -0 5.51 -27.47c0.22,-1.08 0.89,-2.06 1.79,-2.76 0.9,-0.7 2.03,-1.13 3.18,-1.13zm-1.52 1.95l3.88 0c0.08,0 0.16,0.01 0.25,0.03l0 -0c0.26,0.05 0.48,0.18 0.63,0.36l0 0c0.16,0.19 0.25,0.43 0.25,0.69 0,0.07 -0.01,0.14 -0.02,0.23l0 0 -0.7 3.5c-0.07,0.32 -0.25,0.6 -0.51,0.79 -0.25,0.19 -0.56,0.31 -0.89,0.31l-3.88 0c-0.08,0 -0.17,-0.01 -0.25,-0.02 -0.26,-0.05 -0.48,-0.18 -0.63,-0.36l-0 -0c-0.16,-0.19 -0.25,-0.43 -0.25,-0.69 0,-0.07 0.01,-0.14 0.02,-0.23l-0 -0 0.7 -3.5c0.06,-0.31 0.25,-0.59 0.51,-0.79 0.25,-0.19 0.56,-0.31 0.89,-0.31zm3.88 1.03l-3.88 0c-0.09,0 -0.18,0.04 -0.26,0.1 -0.07,0.05 -0.12,0.12 -0.13,0.18l-0.7 3.5 -0 0.03c0,0.01 0,0.02 0.01,0.03 0.01,0.01 0.03,0.02 0.06,0.02l0.05 0 3.88 0c0.09,0 0.18,-0.04 0.26,-0.09 0.07,-0.06 0.12,-0.12 0.13,-0.19l-0 -0 0.7 -3.5 0 -0.03c0,-0.01 -0,-0.02 -0.01,-0.03 -0.01,-0.01 -0.03,-0.02 -0.06,-0.02 -0.01,-0 -0.02,-0 -0.05,-0zm-5.16 5.38l3.88 0c0.08,0 0.16,0.01 0.25,0.03 0.26,0.05 0.48,0.18 0.63,0.36 0.16,0.19 0.25,0.43 0.25,0.69 0,0.07 -0.01,0.14 -0.02,0.23l0 0 -0.7 3.5c-0.07,0.31 -0.25,0.6 -0.51,0.79 -0.25,0.19 -0.56,0.31 -0.89,0.31l-3.88 0c-0.08,0 -0.16,-0.01 -0.25,-0.03 -0.26,-0.05 -0.48,-0.18 -0.63,-0.36 -0.16,-0.19 -0.25,-0.43 -0.25,-0.69 0,-0.07 0.01,-0.14 0.02,-0.23l-0 -0 0.7 -3.5c0.07,-0.32 0.25,-0.6 0.51,-0.79 0.25,-0.19 0.56,-0.31 0.89,-0.31zm3.88 1.03l-3.88 0c-0.09,0 -0.18,0.04 -0.26,0.09 -0.07,0.06 -0.12,0.12 -0.13,0.19l0 0 -0.7 3.5 -0 0.03c0,0.01 0,0.02 0.01,0.03 0.01,0.01 0.03,0.02 0.06,0.02l0.05 0 3.88 0c0.09,0 0.18,-0.04 0.26,-0.1 0.07,-0.05 0.12,-0.12 0.13,-0.18l-0 -0 0.7 -3.5 0 -0.03c0,-0.01 -0,-0.02 -0.01,-0.03 -0.01,-0.01 -0.03,-0.02 -0.06,-0.02l-0.05 -0zm-5.16 5.38l3.88 0c0.08,0 0.16,0.01 0.25,0.03l0 -0c0.26,0.05 0.48,0.18 0.63,0.37 0.16,0.19 0.25,0.43 0.25,0.69 0,0.07 -0.01,0.14 -0.02,0.23l0 0 -0.7 3.5c-0.07,0.32 -0.25,0.6 -0.51,0.79 -0.25,0.19 -0.56,0.31 -0.89,0.31l-3.88 0c-0.08,0 -0.16,-0.01 -0.25,-0.03l-0 0c-0.26,-0.05 -0.48,-0.18 -0.63,-0.36l-0 -0c-0.16,-0.19 -0.25,-0.43 -0.25,-0.69 0,-0.07 0.01,-0.14 0.02,-0.23l-0 -0 0.7 -3.5c0.07,-0.32 0.25,-0.6 0.51,-0.79 0.25,-0.19 0.56,-0.31 0.89,-0.31zm3.88 1.03l-3.88 0c-0.09,0 -0.18,0.04 -0.26,0.1 -0.07,0.05 -0.12,0.12 -0.13,0.18l0 0 -0.7 3.5 -0 0.03c0,0.01 0,0.02 0.01,0.03 0.01,0.01 0.03,0.02 0.06,0.02 0.01,0 0.02,0 0.05,0l3.88 0c0.09,0 0.18,-0.04 0.26,-0.09 0.07,-0.06 0.12,-0.12 0.13,-0.19l-0 -0 0.7 -3.5 0 -0.03c0,-0.01 -0,-0.02 -0.01,-0.03 -0.01,-0.01 -0.03,-0.02 -0.06,-0.02 -0.01,-0 -0.02,-0 -0.05,-0zm-5.16 5.38l3.88 0c0.08,0 0.17,0.01 0.25,0.02 0.26,0.05 0.48,0.18 0.64,0.37 0.16,0.19 0.25,0.43 0.25,0.69 0,0.07 -0.01,0.14 -0.02,0.23l0 0 -0.7 3.5c-0.07,0.32 -0.25,0.6 -0.51,0.79 -0.25,0.19 -0.56,0.31 -0.89,0.31l-3.88 0c-0.08,0 -0.17,-0.01 -0.25,-0.02 -0.26,-0.05 -0.48,-0.18 -0.63,-0.36l-0 -0c-0.16,-0.19 -0.25,-0.43 -0.25,-0.69 0,-0.07 0.01,-0.14 0.02,-0.23l-0 -0 0.7 -3.5c0.07,-0.31 0.25,-0.6 0.51,-0.79 0.25,-0.19 0.56,-0.31 0.89,-0.31zm3.88 1.03l-3.88 0c-0.09,0 -0.18,0.04 -0.26,0.1 -0.07,0.05 -0.12,0.12 -0.13,0.18l0 0 -0.7 3.5 -0 0.03c0,0.01 0,0.02 0.01,0.03 0.01,0.01 0.03,0.02 0.06,0.02l0.05 0 3.88 0c0.09,0 0.18,-0.04 0.26,-0.1 0.07,-0.05 0.12,-0.12 0.13,-0.18l-0 -0 0.7 -3.5 0 -0.03c0,-0.01 -0,-0.02 -0.01,-0.03 -0.01,-0.01 -0.03,-0.02 -0.06,-0.02l-0.05 -0zm-5.16 5.38l3.88 0c0.08,0 0.16,0.01 0.25,0.03 0.26,0.05 0.48,0.18 0.63,0.36l0 0c0.16,0.19 0.25,0.43 0.25,0.69 0,0.07 -0.01,0.14 -0.02,0.23l0 0 -0.7 3.5c-0.07,0.32 -0.25,0.6 -0.51,0.79 -0.25,0.19 -0.56,0.31 -0.89,0.31l-3.88 0c-0.08,0 -0.16,-0.01 -0.25,-0.03 -0.26,-0.05 -0.48,-0.18 -0.63,-0.36l-0 -0c-0.16,-0.19 -0.25,-0.43 -0.25,-0.69 0,-0.07 0.01,-0.14 0.02,-0.23l-0 -0 0.7 -3.5c0.07,-0.32 0.25,-0.6 0.51,-0.79 0.25,-0.19 0.56,-0.31 0.89,-0.31zm3.88 1.03l-3.88 0c-0.09,0 -0.18,0.04 -0.26,0.09 -0.07,0.06 -0.12,0.12 -0.13,0.19l0 0 -0.7 3.5 -0 0.03c0,0.01 0,0.02 0.01,0.03 0.01,0.01 0.03,0.02 0.06,0.02l0.05 0 3.88 0c0.09,0 0.18,-0.04 0.26,-0.1 0.07,-0.05 0.12,-0.12 0.13,-0.18l-0 -0 0.7 -3.5 0 -0.03c0,-0.01 -0,-0.02 -0.01,-0.03 -0.01,-0.01 -0.03,-0.02 -0.06,-0.02l-0.05 -0zm53.54 -25.65l-3.88 0c-0.09,0 -0.18,0.04 -0.26,0.09 -0.07,0.06 -0.12,0.12 -0.13,0.19l0 0 -0.7 3.5 -0 0.03c0,0.01 0,0.02 0.01,0.03 0.01,0.01 0.03,0.02 0.05,0.02l0.05 0 3.88 0c0.09,0 0.18,-0.04 0.26,-0.09 0.07,-0.06 0.12,-0.12 0.13,-0.19l-0 -0 0.7 -3.5 0 -0.03c0,-0.01 -0,-0.02 -0,-0.02 -0.01,-0.01 -0.03,-0.02 -0.06,-0.03l-0.05 -0zm-3.88 -1.03l3.88 0c0.09,0 0.17,0.01 0.25,0.02 0.26,0.05 0.48,0.18 0.63,0.36 0.16,0.19 0.26,0.43 0.26,0.69 0,0.07 -0.01,0.14 -0.02,0.23l0 0 -0.7 3.5c-0.07,0.32 -0.25,0.6 -0.51,0.79 -0.25,0.19 -0.56,0.31 -0.89,0.31l-3.88 0c-0.08,0 -0.16,-0.01 -0.25,-0.03 -0.26,-0.05 -0.48,-0.18 -0.64,-0.36 -0.16,-0.19 -0.25,-0.43 -0.25,-0.69 0,-0.07 0.01,-0.14 0.02,-0.23l-0 -0 0.7 -3.5c0.07,-0.32 0.25,-0.6 0.51,-0.79 0.25,-0.19 0.56,-0.31 0.89,-0.31zm2.59 7.44l-3.88 0c-0.09,0 -0.18,0.04 -0.26,0.09 -0.07,0.06 -0.12,0.12 -0.13,0.19l0 0 -0.7 3.5 -0 0.03c0,0.01 0,0.02 0.01,0.03 0.01,0.01 0.03,0.02 0.06,0.02 0.01,0 0.02,0 0.05,0l3.88 0c0.09,0 0.18,-0.04 0.26,-0.1 0.07,-0.05 0.12,-0.12 0.13,-0.18l-0 -0 0.7 -3.5 0 -0.03c0,-0.01 -0,-0.02 -0.01,-0.03 -0.01,-0.01 -0.03,-0.02 -0.06,-0.02l-0.05 -0zm-3.88 -1.03l3.88 0c0.08,0 0.16,0.01 0.25,0.03 0.26,0.05 0.48,0.18 0.63,0.36 0.16,0.19 0.25,0.43 0.25,0.69 0,0.07 -0.01,0.14 -0.02,0.23l0 0 -0.7 3.5c-0.07,0.32 -0.25,0.6 -0.51,0.8 -0.25,0.19 -0.56,0.31 -0.89,0.31l-3.88 0c-0.08,0 -0.16,-0.01 -0.25,-0.03l-0 0c-0.26,-0.05 -0.48,-0.18 -0.63,-0.36l-0 -0c-0.16,-0.19 -0.25,-0.43 -0.25,-0.69 0,-0.07 0.01,-0.14 0.02,-0.23l-0 -0 0.7 -3.5c0.07,-0.32 0.25,-0.6 0.51,-0.79 0.25,-0.19 0.56,-0.31 0.89,-0.31zm2.59 7.44l-3.88 0c-0.09,0 -0.18,0.04 -0.26,0.1 -0.07,0.05 -0.12,0.12 -0.13,0.18l0 0 -0.7 3.5 -0 0.03 0.01 0.02c0.01,0.01 0.03,0.02 0.06,0.02l0.05 0 3.88 0c0.09,0 0.18,-0.04 0.26,-0.09 0.07,-0.06 0.12,-0.12 0.13,-0.19l-0 -0 0.7 -3.5 0 -0.03c0,-0.01 -0,-0.02 -0.01,-0.03 -0.01,-0.01 -0.03,-0.02 -0.06,-0.02l-0.05 -0zm-3.88 -1.03l3.88 0c0.08,0 0.16,0.01 0.25,0.03 0.26,0.05 0.48,0.18 0.63,0.36 0.16,0.19 0.25,0.43 0.25,0.69 0,0.07 -0.01,0.14 -0.02,0.23l0 0 -0.7 3.5c-0.07,0.32 -0.25,0.6 -0.51,0.79 -0.25,0.19 -0.56,0.31 -0.89,0.31l-3.88 0c-0.08,0 -0.16,-0.01 -0.25,-0.03 -0.26,-0.05 -0.48,-0.18 -0.63,-0.36 -0.16,-0.19 -0.25,-0.43 -0.25,-0.69 0,-0.07 0.01,-0.14 0.02,-0.23l-0 -0 0.7 -3.5c0.07,-0.32 0.25,-0.6 0.51,-0.79 0.25,-0.19 0.56,-0.31 0.89,-0.31zm2.59 7.44l-3.88 0c-0.09,0 -0.18,0.04 -0.26,0.1 -0.07,0.05 -0.12,0.12 -0.13,0.18l0 0 -0.7 3.5 -0 0.03c0,0.01 0,0.02 0.01,0.03 0.01,0.01 0.03,0.02 0.06,0.02l0.05 0 3.88 0c0.09,0 0.18,-0.04 0.26,-0.09 0.07,-0.06 0.12,-0.12 0.13,-0.19l-0 -0 0.7 -3.5 0 -0.03c0,-0.01 -0,-0.02 -0.01,-0.03 -0.01,-0.01 -0.03,-0.02 -0.06,-0.02l-0.05 -0zm-3.88 -1.03l3.88 0c0.08,0 0.16,0.01 0.25,0.03 0.26,0.05 0.48,0.18 0.63,0.36 0.16,0.19 0.25,0.43 0.25,0.69 0,0.07 -0.01,0.14 -0.02,0.23l0 0 -0.7 3.5c-0.07,0.32 -0.25,0.6 -0.51,0.79 -0.25,0.19 -0.56,0.31 -0.89,0.31l-3.88 0c-0.08,0 -0.17,-0.01 -0.25,-0.02 -0.26,-0.05 -0.48,-0.18 -0.64,-0.37 -0.16,-0.19 -0.25,-0.43 -0.25,-0.69 0,-0.07 0.01,-0.14 0.02,-0.23l-0 -0 0.7 -3.5c0.07,-0.31 0.25,-0.6 0.51,-0.79 0.25,-0.19 0.56,-0.31 0.89,-0.31zm2.59 7.44l-3.88 0c-0.09,0 -0.18,0.04 -0.26,0.1 -0.07,0.05 -0.12,0.12 -0.13,0.18l0 0 -0.7 3.5 -0 0.03 0.01 0.02c0.01,0.01 0.03,0.02 0.06,0.02l0.05 0 3.88 0c0.09,0 0.18,-0.04 0.26,-0.1 0.07,-0.05 0.12,-0.12 0.13,-0.18l0.7 -3.5 0 -0.03c0,-0.01 -0,-0.02 -0.01,-0.03 -0.01,-0.01 -0.03,-0.02 -0.06,-0.02l-0.05 -0zm-3.88 -1.03l3.88 0c0.08,0 0.16,0.01 0.25,0.03 0.26,0.05 0.48,0.18 0.63,0.36 0.16,0.19 0.25,0.43 0.25,0.69 0,0.07 -0.01,0.14 -0.02,0.23l0 0 -0.7 3.5c-0.06,0.32 -0.25,0.6 -0.51,0.79 -0.25,0.19 -0.56,0.31 -0.89,0.31l-3.88 0c-0.08,0 -0.16,-0.01 -0.25,-0.03 -0.26,-0.05 -0.48,-0.18 -0.63,-0.36 -0.16,-0.19 -0.25,-0.43 -0.25,-0.69 0,-0.07 0.01,-0.14 0.02,-0.23l-0 -0 0.7 -3.5c0.07,-0.32 0.25,-0.6 0.51,-0.79 0.25,-0.19 0.56,-0.31 0.89,-0.31zm-10.55 -9.29l-18.55 9.6 4.01 -20.01 15.32 10 -0.78 0.4zm-9.27 3.64l8.02 -4.15 -12.58 -8.21 -3.29 16.43 7.85 -4.06z"/>
 </g>
 </symbol>
</svg>
