<?xml version="1.0" encoding="UTF-8"?>
<!DOCTYPE svg PUBLIC "-//W3C//DTD SVG 1.1//EN" "http://www.w3.org/Graphics/SVG/1.1/DTD/svg11.dtd">
<!-- Creator: CorelDRAW 2020 (64-Bit) -->
<svg xmlns="http://www.w3.org/2000/svg" xml:space="preserve" width="32.3322mm" height="20.9543mm" version="1.1" style="shape-rendering:geometricPrecision; text-rendering:geometricPrecision; image-rendering:optimizeQuality; fill-rule:evenodd; clip-rule:evenodd"

 xmlns:xlink="http://www.w3.org/1999/xlink"
 xmlns:xodm="http://www.corel.com/coreldraw/odm/2003">
 <symbol id="logo" viewBox="0 0 71.78 46.52">
 <defs>
  <style type="text/css">
   <![CDATA[
    .fil0 {fill:#E6E6E6}
   ]]>
  </style>
 </defs>
 <g id="Слой_x0020_1">
  <metadata id="CorelCorpID_0Corel-Layer"/>
  <path class="fil0" d="M11.22 4.46l49.34 0 0 37.59 -49.34 0 0 -37.59zm55.86 -4.46l-62.39 0c-2.58,0 -4.7,2.11 -4.7,4.7l0 37.12c0,2.58 2.11,4.7 4.7,4.7l62.39 0c2.58,0 4.7,-2.11 4.7,-4.7l0 -37.12c0,-2.58 -2.11,-4.7 -4.7,-4.7zm-63.79 2.63l4.84 0c0.52,0 0.94,0.42 0.94,0.94l0 4.73c0,0.52 -0.42,0.94 -0.94,0.94l-4.84 0c-0.52,0 -0.94,-0.42 -0.94,-0.94l0 -4.73c0,-0.52 0.42,-0.94 0.94,-0.94zm0 8.66l4.84 0c0.52,0 0.94,0.42 0.94,0.94l0 4.73c0,0.52 -0.42,0.94 -0.94,0.94l-4.84 0c-0.52,0 -0.94,-0.42 -0.94,-0.94l0 -4.73c0,-0.52 0.42,-0.94 0.94,-0.94zm0 8.66l4.84 0c0.52,0 0.94,0.42 0.94,0.94l0 4.73c0,0.52 -0.42,0.94 -0.94,0.94l-4.84 0c-0.52,0 -0.94,-0.42 -0.94,-0.94l0 -4.73c0,-0.52 0.42,-0.94 0.94,-0.94zm0 8.66l4.84 0c0.52,0 0.94,0.42 0.94,0.94l0 4.73c0,0.52 -0.42,0.94 -0.94,0.94l-4.84 0c-0.52,0 -0.94,-0.42 -0.94,-0.94l0 -4.73c0,-0.52 0.42,-0.94 0.94,-0.94zm0 8.66l4.84 0c0.52,0 0.94,0.42 0.94,0.94l0 4.73c0,0.52 -0.42,0.94 -0.94,0.94l-4.84 0c-0.52,0 -0.94,-0.42 -0.94,-0.94l0 -4.73c0,-0.52 0.42,-0.94 0.94,-0.94zm65.2 -34.66l-4.84 0c-0.52,0 -0.94,0.42 -0.94,0.94l0 4.73c0,0.52 0.42,0.94 0.94,0.94l4.84 0c0.52,0 0.94,-0.42 0.94,-0.94l0 -4.73c0,-0.52 -0.42,-0.94 -0.94,-0.94zm0 8.66l-4.84 0c-0.52,0 -0.94,0.42 -0.94,0.94l0 4.73c0,0.52 0.42,0.94 0.94,0.94l4.84 0c0.52,0 0.94,-0.42 0.94,-0.94l0 -4.73c0,-0.52 -0.42,-0.94 -0.94,-0.94zm0 8.66l-4.84 0c-0.52,0 -0.94,0.42 -0.94,0.94l0 4.73c0,0.52 0.42,0.94 0.94,0.94l4.84 0c0.52,0 0.94,-0.42 0.94,-0.94l0 -4.73c0,-0.52 -0.42,-0.94 -0.94,-0.94zm0 8.66l-4.84 0c-0.52,0 -0.94,0.42 -0.94,0.94l0 4.73c0,0.52 0.42,0.94 0.94,0.94l4.84 0c0.52,0 0.94,-0.42 0.94,-0.94l0 -4.73c0,-0.52 -0.42,-0.94 -0.94,-0.94zm0 8.66l-4.84 0c-0.52,0 -0.94,0.42 -0.94,0.94l0 4.73c0,0.52 0.42,0.94 0.94,0.94l4.84 0c0.52,0 0.94,-0.42 0.94,-0.94l0 -4.73c0,-0.52 -0.42,-0.94 -0.94,-0.94zm-20.85 -13.88l-9.84 5.68 -9.84 5.68 0 -11.36 0 -11.36 9.84 5.68 9.84 5.68z"/>
 </g>
 </symbol>
</svg>
