<?xml version="1.0" encoding="UTF-8"?>
<!DOCTYPE svg PUBLIC "-//W3C//DTD SVG 1.1//EN" "http://www.w3.org/Graphics/SVG/1.1/DTD/svg11.dtd">
<!-- Creator: CorelDRAW 2020 (64-Bit) -->
<svg xmlns="http://www.w3.org/2000/svg" xml:space="preserve" width="47.625mm" height="47.625mm" version="1.1" style="shape-rendering:geometricPrecision; text-rendering:geometricPrecision; image-rendering:optimizeQuality; fill-rule:evenodd; clip-rule:evenodd"

 xmlns:xlink="http://www.w3.org/1999/xlink"
 xmlns:xodm="http://www.corel.com/coreldraw/odm/2003">
 <symbol id="tik" viewBox="0 0 2254.08 2254.08">
 <defs>
  <style type="text/css">
   <![CDATA[
    .fil0 {fill:#FFFFFF;fill-rule:nonzero}
   ]]>
  </style>
 </defs>
 <g id="Слой_x0020_1">
  <metadata id="CorelCorpID_0Corel-Layer"/>
  <path class="fil0" d="M2254.08 1127.04c0,622.44 -504.6,1127.04 -1127.04,1127.04 -622.44,0 -1127.04,-504.6 -1127.04,-1127.04 0,-622.44 504.6,-1127.04 1127.04,-1127.04 622.44,0 1127.04,504.6 1127.04,1127.04zm-495.52 -372.46c0.02,-6.55 -0.18,-6.8 -7.03,-6.73 -16.51,0.15 -32.84,-1.82 -49.07,-4.27 -58.97,-8.9 -250.24,-109.23 -282.6,-273.36 -0.65,-3.2 -7.87,-43.93 -7.78,-61.28 0.05,-7.76 -0.1,-7.78 -7.75,-7.89 -1.77,-0.03 -3.54,0 -5.31,0 -74.83,0 -149.69,-0.05 -224.54,0.01 -15.08,0.02 -12.96,-1.87 -12.96,13.26 -0.05,324.59 -0.05,649.2 0.02,973.8 0,12.11 -0.35,24.2 -2.47,36.07 -11.29,62.8 -43.46,111.97 -97.91,145.55 -47.17,29.09 -98.38,37.39 -152.74,26.63 -17.13,-3.39 -33.21,-9.85 -49.31,-16.23 -1.32,-1.2 -2.62,-2.39 -3.92,-3.57 -5.41,-4.54 -11.37,-8.28 -17.18,-12.31 -69.29,-47.99 -102.15,-114.59 -92.15,-197.89 10.15,-84.5 58.77,-141.88 138.87,-171.43 23.89,-8.82 49.07,-12.46 74.62,-11.08 16.45,0.87 32.83,2.95 48.77,7.5 5.51,1.57 8.5,-0.39 8.78,-6.23 0.1,-2.07 0.15,-4.13 0.15,-6.18 0.02,-58.27 -2.17,-185.55 -2.47,-185.84 0.12,-16.78 0.12,-33.56 0.42,-50.32 0.1,-4.84 -2.3,-5.68 -6.38,-6.16 -30.19,-3.59 -60.38,-4.26 -90.75,-2.04 -41.96,3.08 -82.61,11.67 -122.13,25.9 -63.05,22.68 -118.38,57.72 -166.15,104.52 -41.03,40.19 -73.27,86.66 -96.91,139.04 -22.64,50.12 -35.6,102.75 -39.17,157.52 -1.57,23.76 -1.27,47.6 0.94,71.44 3.04,32.94 9.28,65.17 19.3,96.64 28.8,90.45 81.13,164.65 155.4,223.51 7.55,5.99 14.8,12.56 23.84,16.45l0 0c3.79,3.36 7.58,6.73 11.37,10.08 12.02,9.07 24.9,16.82 38.35,23.46 83.19,41.09 170.81,57.79 263.18,46.52 119.83,-14.64 219.68,-67.74 298.28,-159.24 73.98,-86.12 109.93,-187.22 110.58,-300.23 0.94,-161.66 0.22,-323.32 0.32,-484.98 0,-3.86 -2.22,-9.33 2.04,-11.27 3.32,-1.52 6.66,2.89 9.79,4.94 60.18,39.52 125.04,68.09 195.3,84.17 40.89,9.35 82.2,15.03 124.26,14.96 13.27,-0.01 15.03,-0.68 15.04,-13.83 0.09,-57.42 -2.94,-214.35 -2.92,-229.6z"/>
 </g></symbol>
</svg>
