<?xml version="1.0" encoding="UTF-8"?>
<!DOCTYPE svg PUBLIC "-//W3C//DTD SVG 1.1//EN" "http://www.w3.org/Graphics/SVG/1.1/DTD/svg11.dtd">
<!-- Creator: CorelDRAW 2020 (64-Bit) -->
<svg xmlns="http://www.w3.org/2000/svg" xml:space="preserve" width="47.625mm" height="47.625mm" version="1.1" style="shape-rendering:geometricPrecision; text-rendering:geometricPrecision; image-rendering:optimizeQuality; fill-rule:evenodd; clip-rule:evenodd"

 xmlns:xlink="http://www.w3.org/1999/xlink"
 xmlns:xodm="http://www.corel.com/coreldraw/odm/2003">
 <symbol id="whatsapp" viewBox="0 0 1051.54 1051.54">
 <defs>
  <style type="text/css">
   <![CDATA[
    .fil0 {fill:#E6E6E6;fill-rule:nonzero}
   ]]>
  </style>
 </defs>
 <g id="Слой_x0020_1">
  <metadata id="CorelCorpID_0Corel-Layer"/>
  <path class="fil0" d="M1051.54 525.77c0,290.37 -235.39,525.77 -525.77,525.77 -290.37,0 -525.77,-235.4 -525.77,-525.77 0,-290.38 235.4,-525.77 525.77,-525.77 290.37,0 525.77,235.39 525.77,525.77zm-356.73 59c-8.33,-4.17 -49.31,-24.32 -56.95,-27.11 -7.64,-2.77 -13.19,-4.17 -18.76,4.18 -5.55,8.34 -21.52,27.11 -26.38,32.67 -4.86,5.55 -9.72,6.25 -18.05,2.08 -8.34,-4.17 -35.18,-12.96 -67.02,-41.35 -24.78,-22.08 -41.5,-49.37 -46.36,-57.71 -4.86,-8.34 -0.52,-12.85 3.65,-17 3.75,-3.73 8.34,-9.73 12.5,-14.6 4.17,-4.86 5.55,-8.34 8.33,-13.9 2.79,-5.56 1.4,-10.43 -0.69,-14.6 -2.08,-4.18 -18.75,-45.18 -25.69,-61.86 -6.77,-16.24 -13.63,-14.04 -18.76,-14.3 -4.85,-0.24 -10.41,-0.29 -15.97,-0.29 -5.55,0 -14.58,2.08 -22.22,10.42 -7.64,8.34 -29.17,28.49 -29.17,69.5 0,41 29.86,80.62 34.03,86.18 4.17,5.56 58.76,89.72 142.36,125.8 19.88,8.58 35.41,13.71 47.51,17.55 19.96,6.34 38.14,5.44 52.49,3.3 16.01,-2.39 49.31,-20.16 56.25,-39.62 6.95,-19.46 6.95,-36.13 4.86,-39.61 -2.09,-3.48 -7.64,-5.56 -15.98,-9.74zm-152.06 207.56l-0.12 0c-49.74,-0.02 -98.53,-13.38 -141.09,-38.63l-10.13 -6.01 -104.92 27.52 28.01 -102.26 -6.6 -10.48c-27.75,-44.13 -42.41,-95.12 -42.38,-147.49 0.06,-152.8 124.42,-277.11 277.33,-277.11 74.04,0.03 143.66,28.9 195.99,81.27 52.34,52.39 81.14,122.02 81.12,196.07 -0.07,152.81 -124.43,277.13 -277.22,277.13zm235.93 -512.99c-62.97,-63.03 -146.72,-97.75 -235.93,-97.79 -183.85,0 -333.47,149.57 -333.54,333.41 -0.02,58.76 15.34,116.12 44.52,166.69l-47.32 172.78 176.81 -46.37c48.72,26.57 103.57,40.57 159.39,40.59l0.14 0c0.02,0 -0.01,0 0,0 183.82,0 333.45,-149.58 333.53,-333.42 0.03,-89.09 -34.62,-172.87 -97.6,-235.89z"/>
 </g></symbol>
</svg>
